<svg width="210" height="210" viewBox="0 0 210 210" fill="none" xmlns="http://www.w3.org/2000/svg">
<circle cx="105" cy="105" r="105" fill="white"/>
<path d="M102.161 148.727V61.4545H107.751V148.727H102.161ZM116.99 90.2614C116.717 87.5114 115.547 85.375 113.479 83.8523C111.411 82.3295 108.604 81.5682 105.058 81.5682C102.649 81.5682 100.615 81.9091 98.956 82.5909C97.2969 83.25 96.0241 84.1705 95.1378 85.3523C94.2741 86.5341 93.8423 87.875 93.8423 89.375C93.7969 90.625 94.0582 91.7159 94.6264 92.6477C95.2173 93.5795 96.0241 94.3864 97.0469 95.0682C98.0696 95.7273 99.2514 96.3068 100.592 96.8068C101.933 97.2841 103.365 97.6932 104.888 98.0341L111.161 99.5341C114.206 100.216 117.001 101.125 119.547 102.261C122.092 103.398 124.297 104.795 126.161 106.455C128.024 108.114 129.467 110.068 130.49 112.318C131.536 114.568 132.07 117.148 132.092 120.057C132.07 124.33 130.979 128.034 128.82 131.17C126.683 134.284 123.592 136.705 119.547 138.432C115.524 140.136 110.672 140.989 104.99 140.989C99.3537 140.989 94.4446 140.125 90.2628 138.398C86.1037 136.67 82.8537 134.114 80.5128 130.727C78.1946 127.318 76.9787 123.102 76.8651 118.08H91.1491C91.3082 120.42 91.9787 122.375 93.1605 123.943C94.3651 125.489 95.9673 126.659 97.9673 127.455C99.9901 128.227 102.274 128.614 104.82 128.614C107.32 128.614 109.49 128.25 111.331 127.523C113.195 126.795 114.638 125.784 115.661 124.489C116.683 123.193 117.195 121.705 117.195 120.023C117.195 118.455 116.729 117.136 115.797 116.068C114.888 115 113.547 114.091 111.774 113.341C110.024 112.591 107.876 111.909 105.331 111.295L97.7287 109.386C91.8423 107.955 87.1946 105.716 83.7855 102.67C80.3764 99.625 78.6832 95.5227 78.706 90.3636C78.6832 86.1364 79.8082 82.4432 82.081 79.2841C84.3764 76.125 87.5241 73.6591 91.5241 71.8864C95.5241 70.1136 100.07 69.2273 105.161 69.2273C110.342 69.2273 114.865 70.1136 118.729 71.8864C122.615 73.6591 125.638 76.125 127.797 79.2841C129.956 82.4432 131.07 86.1023 131.138 90.2614H116.99Z" fill="#0053B4"/>
</svg>
