<svg width="50" height="48" viewBox="0 0 50 48" fill="none" xmlns="http://www.w3.org/2000/svg">
<path d="M14.4785 45.7854L13.7984 44.4485L14.4785 45.7854L24.7733 40.5483C24.9157 40.4758 25.0843 40.4758 25.2267 40.5483L35.5215 45.7854C38.0686 47.0812 41.011 44.9434 40.5657 42.1206L38.7662 30.7113C38.7413 30.5534 38.7933 30.3931 38.9063 30.2801L47.0684 22.1075C49.0878 20.0855 47.9639 16.6265 45.1417 16.1776L33.7347 14.3635C33.5768 14.3384 33.4405 14.2393 33.3679 14.0969L28.1175 3.80888C26.8185 1.2635 23.1815 1.2635 21.8825 3.80888L16.6322 14.0969C16.5595 14.2393 16.4232 14.3384 16.2653 14.3635L4.85835 16.1776C2.03614 16.6265 0.912236 20.0855 2.93163 22.1075L11.0937 30.2801C11.2067 30.3931 11.2587 30.5534 11.2338 30.7113L9.43427 42.1206C8.98904 44.9434 11.9315 47.0811 14.4785 45.7854Z" fill="#FFE926" stroke="#837500" stroke-width="3"/>
</svg>
