<svg width="210" height="210" viewBox="0 0 210 210" fill="none" xmlns="http://www.w3.org/2000/svg">
<circle cx="105" cy="105" r="105" fill="white"/>
<path d="M42.0455 128V81.4545H60.4091C63.9394 81.4545 66.947 82.1288 69.4318 83.4773C71.9167 84.8106 73.8106 86.6667 75.1136 89.0455C76.4318 91.4091 77.0909 94.1364 77.0909 97.2273C77.0909 100.318 76.4242 103.045 75.0909 105.409C73.7576 107.773 71.8258 109.614 69.2955 110.932C66.7803 112.25 63.7348 112.909 60.1591 112.909H48.4545V105.023H58.5682C60.4621 105.023 62.0227 104.697 63.25 104.045C64.4924 103.379 65.4167 102.462 66.0227 101.295C66.6439 100.114 66.9545 98.7576 66.9545 97.2273C66.9545 95.6818 66.6439 94.3333 66.0227 93.1818C65.4167 92.0151 64.4924 91.1136 63.25 90.4773C62.0076 89.8258 60.4318 89.5 58.5227 89.5H51.8864V128H42.0455ZM83.483 128V81.4545H101.847C105.362 81.4545 108.362 82.0833 110.847 83.3409C113.347 84.5833 115.248 86.3485 116.551 88.6364C117.869 90.9091 118.528 93.5833 118.528 96.6591C118.528 99.75 117.862 102.409 116.528 104.636C115.195 106.848 113.263 108.545 110.733 109.727C108.218 110.909 105.172 111.5 101.597 111.5H89.3011V103.591H100.006C101.884 103.591 103.445 103.333 104.688 102.818C105.93 102.303 106.854 101.53 107.46 100.5C108.081 99.4697 108.392 98.1894 108.392 96.6591C108.392 95.1136 108.081 93.8106 107.46 92.75C106.854 91.6894 105.922 90.8864 104.665 90.3409C103.422 89.7803 101.854 89.5 99.9602 89.5H93.3239V128H83.483ZM108.619 106.818L120.188 128H109.324L98.0057 106.818H108.619ZM168.256 104.727C168.256 109.803 167.294 114.121 165.369 117.682C163.46 121.242 160.854 123.962 157.551 125.841C154.263 127.705 150.566 128.636 146.46 128.636C142.324 128.636 138.612 127.697 135.324 125.818C132.036 123.939 129.438 121.22 127.528 117.659C125.619 114.098 124.665 109.788 124.665 104.727C124.665 99.6515 125.619 95.3333 127.528 91.7727C129.438 88.2121 132.036 85.5 135.324 83.6364C138.612 81.7576 142.324 80.8182 146.46 80.8182C150.566 80.8182 154.263 81.7576 157.551 83.6364C160.854 85.5 163.46 88.2121 165.369 91.7727C167.294 95.3333 168.256 99.6515 168.256 104.727ZM158.278 104.727C158.278 101.439 157.786 98.6667 156.801 96.4091C155.831 94.1515 154.46 92.4394 152.688 91.2727C150.915 90.1061 148.839 89.5227 146.46 89.5227C144.081 89.5227 142.006 90.1061 140.233 91.2727C138.46 92.4394 137.081 94.1515 136.097 96.4091C135.127 98.6667 134.642 101.439 134.642 104.727C134.642 108.015 135.127 110.788 136.097 113.045C137.081 115.303 138.46 117.015 140.233 118.182C142.006 119.348 144.081 119.932 146.46 119.932C148.839 119.932 150.915 119.348 152.688 118.182C154.46 117.015 155.831 115.303 156.801 113.045C157.786 110.788 158.278 108.015 158.278 104.727Z" fill="#0053B4"/>
<path d="M194.608 69.4763L186.757 70.5216L184.102 77.9841L180.681 70.84L172.764 70.6211L178.501 65.1605L176.263 57.5627L183.229 61.332L189.763 56.8552L188.331 64.6453L194.608 69.4763Z" fill="#0053B4"/>
<path d="M189.5 102L192.542 109.313L200.437 109.946L194.422 115.099L196.26 122.804L189.5 118.675L182.74 122.804L184.578 115.099L178.563 109.946L186.458 109.313L189.5 102Z" fill="#0053B4"/>
<path d="M106.459 49.75L105.437 57.6044L111.958 62.1003L104.172 63.5551L101.911 71.1463L98.1218 64.191L90.2035 64.3868L95.6474 58.6333L93.0143 51.1631L100.168 54.5626L106.459 49.75Z" fill="#0053B4"/>
<path d="M141.108 142.976L145.939 149.253L153.729 147.821L149.252 154.355L153.022 161.322L145.424 159.083L139.963 164.821L139.744 156.903L132.6 153.483L140.063 150.828L141.108 142.976Z" fill="#0053B4"/>
<path d="M119.108 27.9765L123.939 34.2533L131.729 32.8213L127.252 39.3554L131.022 46.3218L123.424 44.0833L117.963 49.8208L117.744 41.9031L110.6 38.4827L118.063 35.8279L119.108 27.9765Z" fill="#0053B4"/>
<path d="M102.108 164.976L106.939 171.253L114.729 169.821L110.252 176.355L114.022 183.322L106.424 181.083L100.963 186.821L100.744 178.903L93.6003 175.483L101.063 172.828L102.108 164.976Z" fill="#0053B4"/>
<path d="M19.1081 79.9765L23.9391 86.2533L31.7293 84.8213L27.2525 91.3554L31.0217 98.3218L23.424 96.0833L17.9633 101.821L17.7444 93.9031L10.6003 90.4827L18.0628 87.8279L19.1081 79.9765Z" fill="#0053B4"/>
<path d="M60.061 150.976L61.1063 158.828L68.5688 161.483L61.4247 164.903L61.2058 172.821L55.7452 167.083L48.1474 169.322L51.9167 162.355L47.4399 155.821L55.2301 157.253L60.061 150.976Z" fill="#0053B4"/>
<path d="M72.4593 34.75L71.4369 42.6044L77.958 47.1003L70.172 48.5551L67.9114 56.1463L64.1218 49.191L56.2035 49.3868L61.6474 43.6333L59.0143 36.1631L66.1684 39.5626L72.4593 34.75Z" fill="#0053B4"/>
<path d="M102.108 164.976L106.939 171.253L114.729 169.821L110.252 176.355L114.022 183.322L106.424 181.083L100.963 186.821L100.744 178.903L93.6003 175.483L101.063 172.828L102.108 164.976Z" fill="#0053B4"/>
</svg>
